<?xml version="1.0" standalone="no"?>
<!DOCTYPE svg PUBLIC "-//W3C//DTD SVG 20010904//EN"
 "http://www.w3.org/TR/2001/REC-SVG-20010904/DTD/svg10.dtd">
<svg version="1.0" xmlns="http://www.w3.org/2000/svg"
 width="512.000000pt" height="512.000000pt" viewBox="0 0 512.000000 512.000000"
 preserveAspectRatio="xMidYMid meet">
<metadata>
Created by potrace 1.14, written by Peter Selinger 2001-2017
</metadata>
<g transform="translate(0.000000,512.000000) scale(0.100000,-0.100000)"
fill="#000000" stroke="none">
<path d="M2683 4915 c-18 -8 -117 -63 -220 -123 -103 -60 -381 -221 -618 -357
-781 -450 -830 -479 -867 -513 -21 -19 -50 -59 -65 -90 l-28 -57 3 -1650 c2
-1163 6 -1658 14 -1678 8 -21 50 -51 177 -126 91 -54 177 -104 191 -111 34
-18 77 -14 120 12 19 11 55 32 80 46 25 14 259 149 520 300 261 151 493 285
515 298 22 12 87 50 145 83 57 33 106 59 107 58 3 -3 10 -47 18 -117 17 -132
85 -280 152 -334 51 -40 206 -127 255 -143 60 -19 150 -13 233 16 95 33 228
153 330 296 125 175 210 397 250 650 12 74 14 468 3 544 l-11 73 -51 33 c-114
72 -108 71 -198 30 -163 -74 -338 -98 -416 -56 -17 9 -23 6 -37 -17 -29 -45
-119 -162 -124 -162 -4 0 -6 40 -6 90 0 89 0 90 27 99 15 6 209 115 430 244
222 129 419 244 438 254 114 65 161 96 175 115 18 27 21 164 4 202 -11 23 -61
57 -179 123 -19 11 -190 110 -380 219 -190 110 -384 222 -432 250 l-87 49 -2
530 c0 292 0 555 1 585 1 65 -13 108 -43 129 -28 20 -292 178 -330 198 -42 21
-59 23 -94 8z"/>
</g>
</svg>
